<svg xmlns="http://www.w3.org/2000/svg" width="512" height="512" viewBox="0 0 1024 1024">
  <metadata><?xpacket begin="﻿" id="W5M0MpCehiHzreSzNTczkc9d"?>
<x:xmpmeta xmlns:x="adobe:ns:meta/" x:xmptk="Adobe XMP Core 5.6-c138 79.159824, 2016/09/14-01:09:01        ">
   <rdf:RDF xmlns:rdf="http://www.w3.org/1999/02/22-rdf-syntax-ns#">
      <rdf:Description rdf:about=""/>
   </rdf:RDF>
</x:xmpmeta>
                                                                                                    
                                                                                                    
                                                                                                    
                                                                                                    
                                                                                                    
                                                                                                    
                                                                                                    
                                                                                                    
                                                                                                    
                                                                                                    
                                                                                                    
                                                                                                    
                                                                                                    
                                                                                                    
                                                                                                    
                                                                                                    
                                                                                                    
                                                                                                    
                                                                                                    
                                                                                                    
                           
<?xpacket end="w"?></metadata>
<defs>
    <style>
      .cls-1 {
        stroke: #000;
        stroke-width: 1px;
      }

      .cls-1, .cls-2 {
        fill-rule: evenodd;
      }
    </style>
  </defs>
  <path class="cls-1" d="M939,0H0V26L136,160V820h35V146L59,34H939V0ZM203,137H863L999,0h25V939H990V60L877,171l-674-1V137ZM0,84H34V964L150,852l669,1v35H160L25,1024H0V84ZM853,204h34V862l137,137v25H85V990H966L853,877V204ZM86,154a16.507,16.507,0,1,1-17,16.5A16.755,16.755,0,0,1,86,154ZM853.5,68A17.5,17.5,0,1,1,836,85.5,17.5,17.5,0,0,1,853.5,68ZM939,154a17,17,0,1,1-17,17A17,17,0,0,1,939,154Zm-0.5,682A17.5,17.5,0,1,1,921,853.5,17.5,17.5,0,0,1,938.5,836Zm-85,85A17.5,17.5,0,1,1,836,938.5,17.5,17.5,0,0,1,853.5,921Zm-768-86A17.5,17.5,0,1,1,68,852.5,17.5,17.5,0,0,1,85.5,835Zm85,86A17.5,17.5,0,1,1,153,938.5,17.5,17.5,0,0,1,170.5,921Zm0-853A17.5,17.5,0,1,1,153,85.5,17.5,17.5,0,0,1,170.5,68Z"/>
  <path id="REACT_REDUX_UNI" data-name="REACT REDUX UNI" class="cls-2" d="M301.945,424.96a9.56,9.56,0,0,0,9.6-9.6V311.894a9.56,9.56,0,0,0-9.6-9.6H198.478a9.56,9.56,0,0,0-9.6,9.6V415.36a9.56,9.56,0,0,0,9.6,9.6H301.945ZM239.739,311.894a4.693,4.693,0,0,1,1.406,3.333v84h3.333a4.629,4.629,0,0,1,3.4,1.4,4.475,4.475,0,0,1,1.4,3.267v7.733a4.468,4.468,0,0,1-1.406,3.267,4.653,4.653,0,0,1-3.41,1.4H215.828a4.657,4.657,0,0,1-3.412-1.4,4.466,4.466,0,0,1-1.4-3.267v-7.733a4.438,4.438,0,0,1,1.423-3.267,4.752,4.752,0,0,1,3.458-1.4h3.119v-71.6h-3.119a4.937,4.937,0,0,1-4.881-4.8v-7.733a4.466,4.466,0,0,1,1.406-3.267,4.658,4.658,0,0,1,3.414-1.4h20.492A4.557,4.557,0,0,1,239.739,311.894Zm7.006,47.733a4.2,4.2,0,0,1,.4-1.6,1.907,1.907,0,0,1,1.733-1.067,22.542,22.542,0,0,0,3.534-.666,10.346,10.346,0,0,0,4-2.134,12.283,12.283,0,0,0,3.266-4.666,20.706,20.706,0,0,0,1.334-8.134q0-6.8-2.4-9.933t-7.334-3.667a5.065,5.065,0,0,1-3.133-1.666,4.709,4.709,0,0,1-1.267-3.267v-7.6a4.7,4.7,0,0,1,1.4-3.333,4.526,4.526,0,0,1,3.4-1.467h5.467q12.8,0,19.4,6.533t6.6,21.334q0,12.534-4.867,18.6t-14.466,7.933v0.667a35.4,35.4,0,0,1,6.066,1.133,10.116,10.116,0,0,1,4.2,2.4,13.486,13.486,0,0,1,2.934,4.467,39.93,39.93,0,0,1,2.133,7.066l4,18.667h2.4a4.63,4.63,0,0,1,3.4,1.4,4.479,4.479,0,0,1,1.4,3.267v7.733a4.481,4.481,0,0,1-1.4,3.267,4.63,4.63,0,0,1-3.4,1.4H271.278a8.816,8.816,0,0,1-5.4-1.734,7.76,7.76,0,0,1-3-4.666l-6.666-25.467q-1.07-3.6-2-6.133a7.231,7.231,0,0,0-2.8-3.734,21.353,21.353,0,0,1-3.2-2.466,4.634,4.634,0,0,1-1.334-3.534Zm186.932,65.2a9.56,9.56,0,0,0,9.6-9.6V311.76a9.56,9.56,0,0,0-9.6-9.6H330.211a9.56,9.56,0,0,0-9.6,9.6V415.227a9.56,9.56,0,0,0,9.6,9.6H433.677ZM372.944,311.7a4.641,4.641,0,0,1,1.4,3.4v96.521a4.783,4.783,0,0,1-4.8,4.806H350.077a4.615,4.615,0,0,1-3.4-1.411,4.686,4.686,0,0,1-1.4-3.427v-7.658a4.688,4.688,0,0,1,1.4-3.427,4.614,4.614,0,0,1,3.4-1.41h3.067v-71.6h-3.067a4.78,4.78,0,0,1-4.8-4.8V314.96a4.477,4.477,0,0,1,1.4-3.266,4.628,4.628,0,0,1,3.4-1.4h19.467A4.628,4.628,0,0,1,372.944,311.7Zm8.6,43.864a4.7,4.7,0,0,1,3.333-1.4h2.534v-4.266a4.475,4.475,0,0,1,1.4-3.267,4.629,4.629,0,0,1,3.4-1.4h4.133a4.63,4.63,0,0,1,3.4,1.4,4.479,4.479,0,0,1,1.4,3.267v24.533a4.78,4.78,0,0,1-4.8,4.8h-4.133a4.78,4.78,0,0,1-4.8-4.8v-4h-2.534a4.7,4.7,0,0,1-3.333-1.4,4.521,4.521,0,0,1-1.467-3.4V358.96A4.522,4.522,0,0,1,381.544,355.56Zm0-29.466a4.522,4.522,0,0,1-1.467-3.4v-7.6a4.519,4.519,0,0,1,1.467-3.4,4.692,4.692,0,0,1,3.333-1.4h28.934a4.785,4.785,0,0,1,4.666,4.666v18.8a4.625,4.625,0,0,1-1.4,3.4,4.475,4.475,0,0,1-3.266,1.4h-8a4.78,4.78,0,0,1-4.8-4.8v-6.266H384.877A4.7,4.7,0,0,1,381.544,326.094Zm19.467,73v-8a4.78,4.78,0,0,1,4.8-4.8h8a4.475,4.475,0,0,1,3.266,1.4,4.625,4.625,0,0,1,1.4,3.4v20.631a4.525,4.525,0,0,1-1.4,3.291,4.463,4.463,0,0,1-3.266,1.411H384.877a4.679,4.679,0,0,1-3.333-1.411,4.574,4.574,0,0,1-1.467-3.427v-7.658a4.576,4.576,0,0,1,1.467-3.427,4.678,4.678,0,0,1,3.333-1.41h16.134Zm164.4,25.6a9.565,9.565,0,0,0,9.6-9.611V311.5a9.567,9.567,0,0,0-9.6-9.61H461.943a9.567,9.567,0,0,0-9.6,9.61V415.083a9.565,9.565,0,0,0,9.6,9.611H565.409Zm-66.533-25.6a4.78,4.78,0,0,1,4.8,4.8v7.6a4.78,4.78,0,0,1-4.8,4.8H474.209a4.78,4.78,0,0,1-4.8-4.8v-7.6a4.519,4.519,0,0,1,1.467-3.4,5.182,5.182,0,0,1,3.733-1.4l24.534-83.2a5.059,5.059,0,0,1,.4-1.067,1.517,1.517,0,0,1,1.066-1.067,1.833,1.833,0,0,1,1.067.667,0.775,0.775,0,0,1,.267.533l6.533,26.667a7.171,7.171,0,0,1,.4,2.267,5.936,5.936,0,0,1-.133,1.266q-0.135.6-.267,1.267l-14,52.667h4.4Zm9.733-82.946a3.458,3.458,0,0,1-.133-1.065,4.681,4.681,0,0,1,1.4-3.325,4.532,4.532,0,0,1,3.4-1.464h10.267a4.719,4.719,0,0,1,2.866.933,5.09,5.09,0,0,1,1.8,2.4l25.067,85.467a4.477,4.477,0,0,1,3.267,1.4,4.629,4.629,0,0,1,1.4,3.4v7.6a4.644,4.644,0,0,1-1.4,3.4,4.453,4.453,0,0,1-3.254,1.4H525.526a4.768,4.768,0,0,1-4.783-4.8v-7.6a4.657,4.657,0,0,1,1.379-3.4,4.52,4.52,0,0,1,3.348-1.4h3.939l-3.466-13.2h-15.6a4.546,4.546,0,0,1-3.467-1.411,4.805,4.805,0,0,1-1.333-3.429,4.079,4.079,0,0,1,.133-1.21l1.733-6.721a4.7,4.7,0,0,1,4.667-3.629h8.933Zm75.466,98.946a9.56,9.56,0,0,0,9.6,9.6H697.142a9.56,9.56,0,0,0,9.6-9.6V311.627a9.56,9.56,0,0,0-9.6-9.6H593.675a9.56,9.56,0,0,0-9.6,9.6V415.094Zm54.05-106.2a0.525,0.525,0,0,1,.333-0.067,3.942,3.942,0,0,1,3.011,1.4,4.548,4.548,0,0,1,1.273,3.133v10.4a5.2,5.2,0,0,1-2.134,4.4,17.905,17.905,0,0,0-5.066,6.667,42.527,42.527,0,0,0-3.067,9.333,78.91,78.91,0,0,0-1.467,10.467q-0.4,5.4-.4,10.067,0,4.267.334,9.2a62.778,62.778,0,0,0,1.4,9.666,40.3,40.3,0,0,0,3,8.734,16.519,16.519,0,0,0,5,6.266,5.579,5.579,0,0,1,2.4,4.534v9.066a4.254,4.254,0,0,1-1.407,3.2,4.616,4.616,0,0,1-3.277,1.334,3.51,3.51,0,0,1-1.071-.134,34.34,34.34,0,0,1-14.052-7.4,40.933,40.933,0,0,1-9.368-12.333,59.159,59.159,0,0,1-5.219-16,102.318,102.318,0,0,1-1.606-18.4,95.673,95.673,0,0,1,1.872-19.267,59.9,59.9,0,0,1,5.688-16.266,38.411,38.411,0,0,1,9.635-11.867,29.1,29.1,0,0,1,13.852-6.067A0.533,0.533,0,0,0,638.125,308.894Zm27.55,6.066a4.61,4.61,0,0,1,1.41-3.4,4.682,4.682,0,0,1,3.425-1.4h8.729a4.685,4.685,0,0,1,3.425,1.4,4.615,4.615,0,0,1,1.411,3.4v29.2a4.79,4.79,0,0,1-4.819,4.8H668.683a4.278,4.278,0,0,1-3.412-1.466,6.754,6.754,0,0,1-1.54-3.734,27.228,27.228,0,0,0-3.612-11.2,12.7,12.7,0,0,0-3.415-3.6q-1.941-1.33-3.812-2.466a18.548,18.548,0,0,1-3.146-2.334,4.19,4.19,0,0,1-1.271-3.2v-6.666a3.369,3.369,0,0,1,1.333-2.867,5.174,5.174,0,0,1,3.2-1,7.9,7.9,0,0,1,4.334,1.333,22.756,22.756,0,0,1,3.733,3,27.584,27.584,0,0,1,2.867,3.334q1.2,1.668,1.733,2.466v-5.6ZM649.812,416.627a4.192,4.192,0,0,1-1.47-2.467v-5.733a11.8,11.8,0,0,1,.935-4.8q0.938-2.132,4.419-3.867a9.825,9.825,0,0,0,3.612-2.666,16.122,16.122,0,0,0,2.409-3.8,24.185,24.185,0,0,0,1.472-4.267,41.013,41.013,0,0,0,.805-4.2,3.807,3.807,0,0,1,1.6-2.667,5.256,5.256,0,0,1,3.079-.933h12.848a3.693,3.693,0,0,1,3.346,1.667,6.9,6.9,0,0,1,1.071,3.8v0.933a39.578,39.578,0,0,1-3.948,12.667,33.45,33.45,0,0,1-6.961,9.2,30.815,30.815,0,0,1-9.1,5.8,37.031,37.031,0,0,1-10.639,2.6A4.859,4.859,0,0,1,649.812,416.627Zm66-1.533a9.56,9.56,0,0,0,9.6,9.6H828.874a9.56,9.56,0,0,0,9.6-9.6V311.627a9.56,9.56,0,0,0-9.6-9.6H725.407a9.56,9.56,0,0,0-9.6,9.6V415.094ZM758.54,311.827a4.626,4.626,0,0,1,1.4,3.4v7.6a4.78,4.78,0,0,1-4.8,4.8h-1.333V338.56a4.31,4.31,0,0,1-1.333,3.267,4.48,4.48,0,0,1-3.2,1.267h-9.067a4.471,4.471,0,0,1-3.2-1.267,4.3,4.3,0,0,1-1.333-3.267v-23.6a4.551,4.551,0,0,1,4.533-4.533H755.14A4.629,4.629,0,0,1,758.54,311.827Zm28.667,0a4.63,4.63,0,0,1,1.4,3.4v84h4.8a4.267,4.267,0,0,1,3.2,1.4,4.592,4.592,0,0,1,1.333,3.267v7.866a4.553,4.553,0,0,1-4.533,4.534H760.874a4.822,4.822,0,0,1-3.334-1.334,4.172,4.172,0,0,1-1.466-3.2v-7.866a4.377,4.377,0,0,1,1.466-3.267,4.7,4.7,0,0,1,3.334-1.4h4.8v-84a4.78,4.78,0,0,1,4.8-4.8h13.333A4.63,4.63,0,0,1,787.207,311.827Zm13.133,15.8h-1.2a4.78,4.78,0,0,1-4.8-4.8v-7.6a4.78,4.78,0,0,1,4.8-4.8h14.8a4.6,4.6,0,0,1,3.267,1.333,4.267,4.267,0,0,1,1.4,3.2v23.6a4.2,4.2,0,0,1-1.4,3.267,4.71,4.71,0,0,1-3.267,1.267h-8.933a4.709,4.709,0,0,1-3.267-1.267,4.2,4.2,0,0,1-1.4-3.267V327.627ZM301.945,584.96a9.56,9.56,0,0,0,9.6-9.6V471.894a9.56,9.56,0,0,0-9.6-9.6H198.478a9.56,9.56,0,0,0-9.6,9.6V575.36a9.56,9.56,0,0,0,9.6,9.6H301.945ZM239.739,471.894a4.693,4.693,0,0,1,1.406,3.333v84h3.333a4.629,4.629,0,0,1,3.4,1.4,4.475,4.475,0,0,1,1.4,3.267v7.733a4.468,4.468,0,0,1-1.406,3.267,4.653,4.653,0,0,1-3.41,1.4H215.828a4.657,4.657,0,0,1-3.412-1.4,4.466,4.466,0,0,1-1.4-3.267v-7.733a4.438,4.438,0,0,1,1.423-3.267,4.752,4.752,0,0,1,3.458-1.4h3.119v-71.6h-3.119a4.937,4.937,0,0,1-4.881-4.8v-7.733a4.466,4.466,0,0,1,1.406-3.267,4.658,4.658,0,0,1,3.414-1.4h20.492A4.557,4.557,0,0,1,239.739,471.894Zm7.006,47.733a4.2,4.2,0,0,1,.4-1.6,1.907,1.907,0,0,1,1.733-1.067,22.542,22.542,0,0,0,3.534-.666,10.346,10.346,0,0,0,4-2.134,12.283,12.283,0,0,0,3.266-4.666,20.706,20.706,0,0,0,1.334-8.134q0-6.8-2.4-9.933t-7.334-3.667a5.065,5.065,0,0,1-3.133-1.666,4.709,4.709,0,0,1-1.267-3.267v-7.6a4.7,4.7,0,0,1,1.4-3.333,4.526,4.526,0,0,1,3.4-1.467h5.467q12.8,0,19.4,6.533t6.6,21.334q0,12.534-4.867,18.6t-14.466,7.933v0.667a35.4,35.4,0,0,1,6.066,1.133,10.116,10.116,0,0,1,4.2,2.4,13.486,13.486,0,0,1,2.934,4.467,39.93,39.93,0,0,1,2.133,7.066l4,18.667h2.4a4.63,4.63,0,0,1,3.4,1.4,4.479,4.479,0,0,1,1.4,3.267v7.733a4.481,4.481,0,0,1-1.4,3.267,4.63,4.63,0,0,1-3.4,1.4H271.278a8.816,8.816,0,0,1-5.4-1.734,7.76,7.76,0,0,1-3-4.666l-6.666-25.467q-1.07-3.6-2-6.133a7.231,7.231,0,0,0-2.8-3.734,21.353,21.353,0,0,1-3.2-2.466,4.634,4.634,0,0,1-1.334-3.534Zm186.932,65.2a9.56,9.56,0,0,0,9.6-9.6V471.76a9.56,9.56,0,0,0-9.6-9.6H330.211a9.56,9.56,0,0,0-9.6,9.6V575.227a9.56,9.56,0,0,0,9.6,9.6H433.677ZM372.944,471.7a4.641,4.641,0,0,1,1.4,3.4v96.521a4.783,4.783,0,0,1-4.8,4.806H350.077a4.615,4.615,0,0,1-3.4-1.411,4.686,4.686,0,0,1-1.4-3.427v-7.658a4.688,4.688,0,0,1,1.4-3.427,4.614,4.614,0,0,1,3.4-1.41h3.067v-71.6h-3.067a4.78,4.78,0,0,1-4.8-4.8V474.96a4.477,4.477,0,0,1,1.4-3.266,4.628,4.628,0,0,1,3.4-1.4h19.467A4.628,4.628,0,0,1,372.944,471.7Zm8.6,43.864a4.7,4.7,0,0,1,3.333-1.4h2.534v-4.266a4.475,4.475,0,0,1,1.4-3.267,4.629,4.629,0,0,1,3.4-1.4h4.133a4.63,4.63,0,0,1,3.4,1.4,4.479,4.479,0,0,1,1.4,3.267v24.533a4.78,4.78,0,0,1-4.8,4.8h-4.133a4.78,4.78,0,0,1-4.8-4.8v-4h-2.534a4.7,4.7,0,0,1-3.333-1.4,4.521,4.521,0,0,1-1.467-3.4V518.96A4.522,4.522,0,0,1,381.544,515.56Zm0-29.466a4.522,4.522,0,0,1-1.467-3.4v-7.6a4.519,4.519,0,0,1,1.467-3.4,4.692,4.692,0,0,1,3.333-1.4h28.934a4.785,4.785,0,0,1,4.666,4.666v18.8a4.625,4.625,0,0,1-1.4,3.4,4.475,4.475,0,0,1-3.266,1.4h-8a4.78,4.78,0,0,1-4.8-4.8v-6.266H384.877A4.7,4.7,0,0,1,381.544,486.094Zm19.467,73v-8a4.78,4.78,0,0,1,4.8-4.8h8a4.475,4.475,0,0,1,3.266,1.4,4.625,4.625,0,0,1,1.4,3.4v20.631a4.525,4.525,0,0,1-1.4,3.291,4.463,4.463,0,0,1-3.266,1.411H384.877a4.679,4.679,0,0,1-3.333-1.411,4.574,4.574,0,0,1-1.467-3.427v-7.658a4.576,4.576,0,0,1,1.467-3.427,4.678,4.678,0,0,1,3.333-1.41h16.134Zm51.332,15.989a9.565,9.565,0,0,0,9.6,9.611H565.409a9.565,9.565,0,0,0,9.6-9.611V471.5a9.567,9.567,0,0,0-9.6-9.61H461.943a9.567,9.567,0,0,0-9.6,9.61V575.083Zm57.066-88.856q-2-1.266-2-4.6v-6.533a4.519,4.519,0,0,1,1.467-3.4,4.693,4.693,0,0,1,3.333-1.4h4.134a38.022,38.022,0,0,1,17.466,3.8,34.224,34.224,0,0,1,12.467,10.8,49.306,49.306,0,0,1,7.467,16.866,90.261,90.261,0,0,1,2.466,21.867q0,26.268-10.866,39.467t-31.667,13.2h-1.467a5.025,5.025,0,0,1-4.8-4.8V563.76a4.583,4.583,0,0,1,1.334-3.266,4.753,4.753,0,0,1,3.2-1.534,25.875,25.875,0,0,0,6.933-1.6,15.034,15.034,0,0,0,6.6-5.266,32.993,32.993,0,0,0,5-11.2q2-7.266,2-19.4,0-14.933-4.2-23.667t-15.267-10.2A8.194,8.194,0,0,1,509.409,486.227Zm-30.533,72.867v-71.6h-3.067a4.78,4.78,0,0,1-4.8-4.8V474.96a4.477,4.477,0,0,1,1.4-3.266,4.628,4.628,0,0,1,3.4-1.4h21.067a4.78,4.78,0,0,1,4.8,4.8v96.4a4.7,4.7,0,0,1-1.4,3.333,4.528,4.528,0,0,1-3.4,1.467H475.809a4.78,4.78,0,0,1-4.8-4.8v-7.6a4.78,4.78,0,0,1,4.8-4.8h3.067Zm218.266,25.733a9.56,9.56,0,0,0,9.6-9.6V471.76a9.56,9.56,0,0,0-9.6-9.6H593.675a9.56,9.56,0,0,0-9.6,9.6V575.227a9.56,9.56,0,0,0,9.6,9.6H697.142Zm-54.934-8.6a6.087,6.087,0,0,1-3.6,1.133,4.115,4.115,0,0,1-1.2-.133,29.284,29.284,0,0,1-13-4.933,30.505,30.505,0,0,1-8.2-8.734,34.647,34.647,0,0,1-4.333-10.733,50.607,50.607,0,0,1-1.267-10.933v-54.4h-1.6a4.261,4.261,0,0,1-3.2-1.4,4.75,4.75,0,0,1-1.333-3.4v-7.867a4.307,4.307,0,0,1,1.333-3.267,4.479,4.479,0,0,1,3.2-1.266h28.134a4.965,4.965,0,0,1,3.333,1.266,4.124,4.124,0,0,1,1.467,3.267v7.867a4.53,4.53,0,0,1-1.467,3.4,4.7,4.7,0,0,1-3.333,1.4h-3.867v51.333a44,44,0,0,0,1.6,12.133,13.345,13.345,0,0,0,5.733,8.134,5.669,5.669,0,0,1,3.2,5.066v8.8A3.759,3.759,0,0,1,642.208,576.227Zm10.4-101.4a4.209,4.209,0,0,1,1.4-3.267,4.89,4.89,0,0,1,3.4-1.266h24.134a4.718,4.718,0,0,1,3.266,1.266,4.205,4.205,0,0,1,1.4,3.267v7.867a4.628,4.628,0,0,1-1.4,3.4,4.479,4.479,0,0,1-3.266,1.4h-1.734V539.76q0,17.069-6.733,26a29.089,29.089,0,0,1-18.333,11.2h-0.667a4.551,4.551,0,0,1-4.533-4.533v-8.133a4.915,4.915,0,0,1,.933-3,8.782,8.782,0,0,1,2.4-2.2,13.4,13.4,0,0,0,6.067-8.067,40.079,40.079,0,0,0,1.8-12.2V487.494h-3.334a4.78,4.78,0,0,1-4.8-4.8v-7.867Zm63.2,100.267a9.56,9.56,0,0,0,9.6,9.6H828.874a9.56,9.56,0,0,0,9.6-9.6V471.627a9.56,9.56,0,0,0-9.6-9.6H725.407a9.56,9.56,0,0,0-9.6,9.6V575.094Zm24.133-87.467h-0.933a4.261,4.261,0,0,1-3.2-1.4,4.581,4.581,0,0,1-1.333-3.267v-8a4.3,4.3,0,0,1,1.333-3.266,4.48,4.48,0,0,1,3.2-1.267H769.14a4.562,4.562,0,0,1,3.134,1.267,4.205,4.205,0,0,1,1.4,3.266v8a4.476,4.476,0,0,1-1.4,3.267,4.34,4.34,0,0,1-3.134,1.4h-2l48.267,71.6h1.467a4.559,4.559,0,0,1,3.133,1.267,4.205,4.205,0,0,1,1.4,3.266v8a4.207,4.207,0,0,1-1.4,3.267,4.559,4.559,0,0,1-3.133,1.267H785.807a4.34,4.34,0,0,1-4.533-4.534v-8a4.34,4.34,0,0,1,4.533-4.533h2.133Zm17.711,44.4a4.772,4.772,0,0,1,4.383,0,4.187,4.187,0,0,1,1.794,1.6l4.781,7.067a4.719,4.719,0,0,1,.8,2.666,5.682,5.682,0,0,1-.667,2.534l-8,13.333h4a4.341,4.341,0,0,1,4.534,4.533v8a4.334,4.334,0,0,1-4.517,4.534H737.39a4.457,4.457,0,0,1-3.189-1.267,4.312,4.312,0,0,1-1.327-3.267v-8a4.31,4.31,0,0,1,1.327-3.266,4.457,4.457,0,0,1,3.189-1.267h1.2l17.271-25.6A4.164,4.164,0,0,1,757.651,532.027Zm26.956-30.267a5.452,5.452,0,0,1,.667-2.4l6.666-11.733h-3.333a4.261,4.261,0,0,1-3.2-1.4,4.581,4.581,0,0,1-1.333-3.267v-8a4.3,4.3,0,0,1,1.333-3.266,4.48,4.48,0,0,1,3.2-1.267h26.8a4.487,4.487,0,0,1,3.2,1.267,4.307,4.307,0,0,1,1.333,3.266v8a4.589,4.589,0,0,1-1.333,3.267,4.267,4.267,0,0,1-3.2,1.4h-1.2l-16.133,23.867a4.189,4.189,0,0,1-1.8,1.6,5.153,5.153,0,0,1-2.2.533,4.288,4.288,0,0,1-3.867-2.133l-4.8-7.067a4.7,4.7,0,0,1-.8-2.667h0ZM433.677,744.827a9.56,9.56,0,0,0,9.6-9.6V631.76a9.56,9.56,0,0,0-9.6-9.6H330.211a9.56,9.56,0,0,0-9.6,9.6V735.227a9.56,9.56,0,0,0,9.6,9.6H433.677Zm-54.933-8.6a6.091,6.091,0,0,1-3.6,1.133,4.115,4.115,0,0,1-1.2-.133,29.273,29.273,0,0,1-13-4.934,30.489,30.489,0,0,1-8.2-8.733,34.623,34.623,0,0,1-4.333-10.733,50.607,50.607,0,0,1-1.267-10.933v-54.4h-1.6a4.259,4.259,0,0,1-3.2-1.4,4.745,4.745,0,0,1-1.333-3.4v-7.867a4.3,4.3,0,0,1,1.333-3.267,4.477,4.477,0,0,1,3.2-1.266h28.133a4.968,4.968,0,0,1,3.334,1.266,4.123,4.123,0,0,1,1.466,3.267v7.867a4.529,4.529,0,0,1-1.466,3.4,4.707,4.707,0,0,1-3.334,1.4h-3.866v51.333a44,44,0,0,0,1.6,12.133,13.341,13.341,0,0,0,5.733,8.134,5.671,5.671,0,0,1,3.2,5.066v8.8A3.759,3.759,0,0,1,378.744,736.227Zm10.4-101.4a4.209,4.209,0,0,1,1.4-3.267,4.888,4.888,0,0,1,3.4-1.266h24.133a4.719,4.719,0,0,1,3.267,1.266,4.209,4.209,0,0,1,1.4,3.267v7.867a4.632,4.632,0,0,1-1.4,3.4,4.479,4.479,0,0,1-3.267,1.4h-1.733V699.76q0,17.069-6.733,26a29.089,29.089,0,0,1-18.334,11.2h-0.666a4.553,4.553,0,0,1-4.534-4.533v-8.134a4.92,4.92,0,0,1,.934-3,8.766,8.766,0,0,1,2.4-2.2,13.4,13.4,0,0,0,6.066-8.067,40.079,40.079,0,0,0,1.8-12.2V647.494h-3.333a4.78,4.78,0,0,1-4.8-4.8v-7.867Zm176.265,110a9.564,9.564,0,0,0,9.6-9.611V631.637a9.567,9.567,0,0,0-9.6-9.61H461.943a9.567,9.567,0,0,0-9.6,9.61V735.216a9.564,9.564,0,0,0,9.6,9.611H565.409Zm-25.733-14.675a7.365,7.365,0,0,1,.267,1.6,4.49,4.49,0,0,1-1.4,3.271,4.634,4.634,0,0,1-3.4,1.4h-6.4a8.384,8.384,0,0,1-4.934-1.6,8.612,8.612,0,0,1-3.2-4.138l-31.466-93.852a5.646,5.646,0,0,1-.2-0.733,3.659,3.659,0,0,1-.067-0.736,4.944,4.944,0,0,1,1.4-3.4,4.576,4.576,0,0,1,3.533-1.535h7.067a8.706,8.706,0,0,1,8.267,5.875Zm-44.8-56.871v46.058h4.533a4.63,4.63,0,0,1,3.4,1.4,4.483,4.483,0,0,1,1.4,3.271v7.742a4.5,4.5,0,0,1-1.395,3.271,4.606,4.606,0,0,1-3.386,1.4H474.191a4.678,4.678,0,0,1-3.321-1.4,4.4,4.4,0,0,1-1.461-3.271v-7.742a4.421,4.421,0,0,1,1.442-3.271,4.589,4.589,0,0,1,3.279-1.4h3.146V647.648H474.13a4.482,4.482,0,0,1-3.279-1.467,4.638,4.638,0,0,1-1.442-3.337V635.1a4.4,4.4,0,0,1,1.459-3.271,4.668,4.668,0,0,1,3.316-1.4h3.582a4.48,4.48,0,0,1,2.718.935,5.082,5.082,0,0,1,1.792,2.4l12.2,36.446a12.759,12.759,0,0,1,.4,3.071h0Zm55.2,61.213a2.639,2.639,0,0,1-1.867,1,1.157,1.157,0,0,1-.8-0.4l-0.4-.936-12.933-39.917a7.114,7.114,0,0,1-.4-1.4,8.45,8.45,0,0,1-.133-1.535V647.648h-4.534a4.522,4.522,0,0,1-3.4-1.467,4.71,4.71,0,0,1-1.4-3.337V635.1a4.488,4.488,0,0,1,1.4-3.271,4.634,4.634,0,0,1,3.4-1.4h24.134a4.706,4.706,0,0,1,3.333,1.4,4.394,4.394,0,0,1,1.467,3.271v7.744a5.025,5.025,0,0,1-4.8,4.8h-2.134v84.775A3.041,3.041,0,0,1,550.076,734.494Zm34,0.6a9.56,9.56,0,0,0,9.6,9.6H697.142a9.56,9.56,0,0,0,9.6-9.6V631.627a9.56,9.56,0,0,0-9.6-9.6H593.675a9.56,9.56,0,0,0-9.6,9.6V735.094Zm49.867-87.467h-3.734a4.522,4.522,0,0,1-3.4-1.467,4.7,4.7,0,0,1-1.4-3.333v-7.733a4.479,4.479,0,0,1,1.4-3.267,4.632,4.632,0,0,1,3.4-1.4h30.267a4.63,4.63,0,0,1,3.4,1.4,4.479,4.479,0,0,1,1.4,3.267v7.733a4.7,4.7,0,0,1-1.4,3.333,4.521,4.521,0,0,1-3.4,1.467h-3.733v71.6h3.733a4.63,4.63,0,0,1,3.4,1.4,4.479,4.479,0,0,1,1.4,3.267v7.733a4.481,4.481,0,0,1-1.4,3.267,4.629,4.629,0,0,1-3.4,1.4H630.208a4.631,4.631,0,0,1-3.4-1.4,4.481,4.481,0,0,1-1.4-3.267v-7.733a4.479,4.479,0,0,1,1.4-3.267,4.632,4.632,0,0,1,3.4-1.4h3.734v-71.6Z"/>
</svg>
